# xmcd
#
# Track frame offsets:
# 150
# 13691
# 35752
# 50916
# 67338
# 90322
# 113717
# 130267
# 148597
# 165994
# 185132
# 201895
# 223715
#
# Disc length: 3019 seconds
#
#
# Revision: 0
# Processed by: cddbd v1.5.1PL2 Copyright (c) Steve Scherf et al.
# Submitted via: FreeRIP 2.945 
#
DISCID=c60bc90d
DTITLE=Lonesome Tom - Irregular Molars
DYEAR=1900
DGENRE=Blues
TTITLE0=Black Velvet Elvis
TTITLE1=Snappin' Turtle Soup
TTITLE2=Rumble Strip
TTITLE3=A Bear In The Dumpster
TTITLE4=Las Vegas Woman
TTITLE5=Lopsided Moon
TTITLE6=Please, Now, Madam
TTITLE7=The Ballad Of Roadside Rick
TTITLE8=Everybody but Me
TTITLE9=Moundhouse(instrumental)
TTITLE10=Come Out, Come Out
TTITLE11=We Here To Party
TTITLE12=Deluge (atmoshere)
EXTD=
EXTT0=
EXTT1=
EXTT2=
EXTT3=
EXTT4=
EXTT5=
EXTT6=
EXTT7=
EXTT8=
EXTT9=
EXTT10=
EXTT11=
EXTT12=
PLAYORDER=
